# Blender 4.5.0
# www.blender.org
o Cube
v -0.138205 0.911692 -0.370905
v 0.008652 0.602601 -0.512644
v -0.130977 -0.222084 -0.046052
v -0.000292 -0.213657 -0.003857
v 0.078020 -0.289807 -0.103397
v -0.236147 1.111906 0.194581
v 0.547871 0.744894 -0.460981
v -0.528467 0.756692 0.440579
v 0.249999 1.111906 -0.214440
v -0.040878 0.628924 -0.557265
v 0.094077 0.952729 -0.367264
v 0.381678 0.687044 0.276788
v 0.283108 0.974930 0.024710
v 0.002287 -0.213657 -0.016140
v -0.160673 1.130592 -0.251061
v 0.387635 0.755989 0.544717
v -0.372284 0.767227 -0.555917
v 0.175999 1.130592 0.234282
v -0.468574 0.698807 0.208081
v -0.365904 0.950064 -0.038728
v -0.290713 0.943177 0.292623
v -0.507574 0.589360 0.235424
v 0.041889 -0.326591 0.055220
v 0.467107 0.721940 0.236639
v 0.163525 0.997497 0.300339
vn 0.8316 0.1611 0.5314
vn 0.6427 0.0044 0.7661
vn 0.6424 0.0010 0.7664
vn 0.6421 -0.0016 0.7666
vn 0.8911 -0.1020 -0.4422
vn -0.8225 0.0043 0.5687
vn -0.8227 0.0010 0.5684
vn -0.8229 -0.0016 0.5682
vn -0.0216 0.1817 -0.9831
vt 0.107628 0.612358
vt 0.155183 0.411143
vt 0.213161 0.441224
vt 0.250000 1.002701
vt 0.104494 0.849016
vt 0.151261 0.380858
vt 0.102446 0.591767
vt 0.027496 0.618961
vt 0.153248 0.065004
vt 0.001126 0.007889
s 1
f 1/1/1 20/2/1 19/3/1 3/4/1 2/5/1
f 9/6/2 6/7/2 8/8/3 7/9/3
f 7/9/3 8/8/3 4/10/4
f 11/1/5 13/2/5 12/3/5 5/4/5 10/5/5
f 18/6/6 15/7/6 17/8/7 16/9/7
f 16/9/7 17/8/7 14/10/8
f 21/1/9 25/2/9 24/3/9 23/4/9 22/5/9
