# Blender 4.5.0
# www.blender.org
o Plane
v 0.294879 -0.030942 0.006217
v -0.239243 -0.034126 0.006217
v 0.200451 1.053222 0.006217
v -0.158130 1.051085 0.006217
v 0.476089 0.821188 0.006217
v -0.430900 0.815782 0.006217
v 0.125195 0.062185 0.143040
v -0.193532 -0.068139 -0.131948
v -0.126393 0.895725 -0.076433
v -0.340369 0.808232 -0.261045
v 0.069579 0.774129 0.093165
v -0.450509 0.561471 -0.355552
v 0.033721 -0.066187 -0.257832
v 0.033721 -0.069269 0.258981
v 0.033721 0.982842 -0.166463
v 0.033721 0.980773 0.180497
v 0.033721 0.758327 -0.433169
v 0.033721 0.753096 0.444427
v 0.211725 0.134993 -0.160341
v -0.071734 -0.166153 0.059855
v -0.317056 0.814499 0.252096
v -0.507355 0.612326 0.399924
v -0.077058 0.802070 0.065302
v -0.539597 0.310669 0.424609
v 0.210434 -0.133154 0.204538
v -0.074978 0.012787 -0.132296
v 0.353652 0.787492 0.376596
v 0.162041 0.885470 0.150464
v 0.449753 0.524245 0.489357
v -0.015973 0.762389 -0.060276
v 0.168259 -0.124448 -0.194480
v -0.115899 0.051606 0.078959
v 0.378682 0.705406 -0.398024
v 0.187914 0.823600 -0.214453
v 0.459749 0.448325 -0.475804
v -0.003932 0.735604 -0.029617
vn -0.0000 -0.0000 1.0000
vn -0.6537 0.0019 0.7568
vn 1.0000 -0.0000 -0.0000
vn 0.6142 -0.0011 0.7892
vn -0.7634 -0.0020 0.6460
vn 0.6936 0.0008 0.7203
vt 0.147908 0.680547
vt 0.001426 0.868684
vt 0.000974 0.100192
vt 0.077359 0.002084
vt 0.114393 0.935735
vt 0.054869 1.005728
vt 0.111682 0.308294
vt 0.248928 0.131031
vt 0.248816 0.833603
vt 0.174131 0.930064
vt 0.144467 0.066244
vt 0.198388 0.000815
vt 0.248928 0.131031
vt 0.248816 0.833603
vt 0.144467 0.066244
vt 0.198388 0.000815
s 1
f 5/1/1 6/2/1 2/3/1 1/4/1
f 3/5/1 4/6/1 6/2/1 5/1/1
f 11/7/2 12/8/2 8/9/2 7/10/2
f 9/11/2 10/12/2 12/8/2 11/7/2
f 17/1/3 18/2/3 14/3/3 13/4/3
f 15/5/3 16/6/3 18/2/3 17/1/3
f 23/7/4 24/8/4 20/9/4 19/10/4
f 21/11/4 22/12/4 24/8/4 23/7/4
f 29/7/5 30/8/5 26/9/5 25/10/5
f 27/11/5 28/12/5 30/8/5 29/7/5
f 35/7/6 36/13/6 32/14/6 31/10/6
f 33/15/6 34/16/6 36/13/6 35/7/6
